<?xml version="1.0" encoding="UTF-8" standalone="no"?>
<svg
   version="1.2"
   viewBox="0 0 50 50"
   id="svg254"
   sodipodi:docname="icon3.svg"
   inkscape:version="1.2.1 (9c6d41e, 2022-07-14)"
   xmlns:inkscape="http://www.inkscape.org/namespaces/inkscape"
   xmlns:sodipodi="http://sodipodi.sourceforge.net/DTD/sodipodi-0.dtd"
   xmlns="http://www.w3.org/2000/svg"
   xmlns:svg="http://www.w3.org/2000/svg">
  <defs
     id="defs258" />
  <sodipodi:namedview
     id="namedview256"
     pagecolor="#ffffff"
     bordercolor="#000000"
     borderopacity="0.25"
     inkscape:showpageshadow="2"
     inkscape:pageopacity="0.0"
     inkscape:pagecheckerboard="0"
     inkscape:deskcolor="#d1d1d1"
     showgrid="false"
     inkscape:zoom="4.72"
     inkscape:cx="25.105932"
     inkscape:cy="25"
     inkscape:window-width="1309"
     inkscape:window-height="456"
     inkscape:window-x="0"
     inkscape:window-y="25"
     inkscape:window-maximized="0"
     inkscape:current-layer="g252" />
  <g
     fill="#C3DAFE"
     id="g252">
    <path
       d="M22.7 40.6c0 1.7-1.5 3.1-3.4 3.1s-3.4-1.4-3.4-3.1 1.5-3.1 3.4-3.1 3.4 1.4 3.4 3.1v-5.2h-17c-.6 0-1.1-.5-1.1-1v-25c0-.6.5-1 1.1-1H33c.6 0 1.1.5 1.1 1v1h4.5V3.1c0-1.7-1.5-3.1-3.4-3.1H3.4C1.5 0 0 1.4 0 3.1v41.7c0 1.7 1.5 3.1 3.4 3.1h19.4c-.1-.3-.1-.7-.1-1v-6.3zM18.5 4.5c.4-.4 1.2-.4 1.6 0 .2.2.3.5.3.7 0 .3-.1.5-.3.7-.2.2-.5.3-.8.3-.3 0-.6-.1-.8-.3-.2-.2-.3-.5-.3-.7 0-.3.1-.5.3-.7z"
       id="path248"
       style="fill:#aa0000" />
    <path
       d="M46.6 12.5H28.4c-1.9 0-3.4 1.4-3.4 3.1v31.3c0 1.7 1.5 3.1 3.4 3.1h18.2c1.9 0 3.4-1.4 3.4-3.1V15.6c0-1.7-1.5-3.1-3.4-3.1zM36.7 17c.4-.4 1.2-.4 1.6 0 .2.2.3.5.3.7 0 .3-.1.5-.3.7-.2.2-.5.3-.8.3-.3 0-.6-.1-.8-.3-.2-.2-.3-.5-.3-.7 0-.3.1-.5.3-.7zm-4.6 0c.4-.4 1.2-.4 1.6 0 .2.2.3.5.3.7 0 .3-.1.5-.3.7-.2.2-.5.3-.8.3-.3 0-.6-.1-.8-.3-.2-.2-.3-.5-.3-.7 0-.3.1-.5.3-.7zm6.2 28.5c-.2.2-.5.3-.8.3-.3 0-.6-.1-.8-.3-.2-.2-.3-.5-.3-.7 0-.3.1-.5.3-.7.4-.4 1.2-.4 1.6 0 .2.2.3.5.3.7 0 .3-.1.5-.3.7zm7.2-4.9c0 .6-.5 1-1.1 1H30.7c-.6 0-1.1-.5-1.1-1V21.9c0-.6.5-1 1.1-1h13.6c.6 0 1.1.5 1.1 1v18.7z"
       id="path250"
       style="fill:#aa0000" />
  </g>
</svg>
