<?xml version="1.0" encoding="UTF-8" standalone="no"?>
<svg
   version="1.2"
   viewBox="0 0 50 50"
   id="svg336"
   sodipodi:docname="icon8.svg"
   inkscape:version="1.2.1 (9c6d41e, 2022-07-14)"
   xmlns:inkscape="http://www.inkscape.org/namespaces/inkscape"
   xmlns:sodipodi="http://sodipodi.sourceforge.net/DTD/sodipodi-0.dtd"
   xmlns="http://www.w3.org/2000/svg"
   xmlns:svg="http://www.w3.org/2000/svg">
  <defs
     id="defs340" />
  <sodipodi:namedview
     id="namedview338"
     pagecolor="#ffffff"
     bordercolor="#000000"
     borderopacity="0.25"
     inkscape:showpageshadow="2"
     inkscape:pageopacity="0.0"
     inkscape:pagecheckerboard="0"
     inkscape:deskcolor="#d1d1d1"
     showgrid="false"
     inkscape:zoom="4.72"
     inkscape:cx="25.105932"
     inkscape:cy="25"
     inkscape:window-width="1309"
     inkscape:window-height="456"
     inkscape:window-x="0"
     inkscape:window-y="25"
     inkscape:window-maximized="0"
     inkscape:current-layer="svg336" />
  <g
     fill="#C3DAFE"
     id="g334"
     style="fill:#aa0000">
    <path
       d="M49.5 6.2l-7.8-6c-.1-.1-.3-.2-.6-.2H5.2c-.3 0-.7.2-.9.5-.1.4-.2.8-.1 1.1l1.9 5.5-1.9 5.5c-.1.4-.1.8.1 1.1.2.3.5.5.9.5h35.9c.2 0 .4-.1.6-.2l7.8-6c.3-.2.5-.6.5-1 0-.3-.2-.6-.5-.8zM43.8 23.8l1.9-5.5c.1-.4.1-.8-.1-1.1-.2-.3-.5-.5-.9-.5H8.9c-.2 0-.4.1-.6.2l-7.8 6c-.3.1-.5.5-.5.9s.2.8.5 1l7.8 6c.1.1.3.2.6.2h35.9c.6 0 1-.5 1-1.2 0-.2-.1-.5-.2-.6l-1.8-5.4zM20.8 48.8c0 .7.5 1.2 1 1.2h6.3c.6 0 1-.5 1-1.2V33.3h-8.3v15.5z"
       id="path332"
       style="fill:#aa0000" />
  </g>
</svg>
