<?xml version="1.0" encoding="UTF-8" standalone="no"?>
<svg
   version="1.2"
   viewBox="0 0 50 45"
   id="svg322"
   sodipodi:docname="icon7.svg"
   inkscape:version="1.2.1 (9c6d41e, 2022-07-14)"
   xmlns:inkscape="http://www.inkscape.org/namespaces/inkscape"
   xmlns:sodipodi="http://sodipodi.sourceforge.net/DTD/sodipodi-0.dtd"
   xmlns="http://www.w3.org/2000/svg"
   xmlns:svg="http://www.w3.org/2000/svg">
  <defs
     id="defs326" />
  <sodipodi:namedview
     id="namedview324"
     pagecolor="#ffffff"
     bordercolor="#000000"
     borderopacity="0.25"
     inkscape:showpageshadow="2"
     inkscape:pageopacity="0.0"
     inkscape:pagecheckerboard="0"
     inkscape:deskcolor="#d1d1d1"
     showgrid="false"
     inkscape:zoom="5.2444444"
     inkscape:cx="24.883475"
     inkscape:cy="22.5"
     inkscape:window-width="1309"
     inkscape:window-height="456"
     inkscape:window-x="0"
     inkscape:window-y="25"
     inkscape:window-maximized="0"
     inkscape:current-layer="svg322" />
  <path
     fill="#C3DAFE"
     d="M49 42.8h-1V1.1c0-.6-.5-1.1-1-1.1h-6.3c-.6 0-1 .5-1 1.1v41.6h-4.2V16.9c0-.6-.5-1.1-1-1.1h-6.3c-.6 0-1 .5-1 1.1v25.9H23V10.1c0-.6-.5-1.1-1-1.1h-6.3c-.6 0-1 .5-1 1.1v32.6h-4.2v-18c0-.6-.5-1.1-1-1.1H3.1c-.6 0-1 .5-1 1.1v18H1c-.6 0-1 .5-1 1.1 0 .7.5 1.2 1 1.2H49c.6 0 1-.5 1-1.1 0-.6-.5-1.1-1-1.1z"
     id="path320"
     style="fill:#aa0000" />
</svg>
