<?xml version="1.0" encoding="UTF-8" standalone="no"?>
<svg
   version="1.2"
   viewBox="0 0 50 50"
   id="svg4"
   sodipodi:docname="icon1.svg"
   inkscape:version="1.2.1 (9c6d41e, 2022-07-14)"
   xmlns:inkscape="http://www.inkscape.org/namespaces/inkscape"
   xmlns:sodipodi="http://sodipodi.sourceforge.net/DTD/sodipodi-0.dtd"
   xmlns="http://www.w3.org/2000/svg"
   xmlns:svg="http://www.w3.org/2000/svg">
  <defs
     id="defs8" />
  <sodipodi:namedview
     id="namedview6"
     pagecolor="#ffffff"
     bordercolor="#000000"
     borderopacity="0.25"
     inkscape:showpageshadow="2"
     inkscape:pageopacity="0.0"
     inkscape:pagecheckerboard="0"
     inkscape:deskcolor="#d1d1d1"
     showgrid="false"
     inkscape:zoom="4.72"
     inkscape:cx="25.105932"
     inkscape:cy="25"
     inkscape:window-width="1309"
     inkscape:window-height="456"
     inkscape:window-x="0"
     inkscape:window-y="25"
     inkscape:window-maximized="0"
     inkscape:current-layer="svg4" />
  <path
     fill="#C3DAFE"
     d="M32.2 1.1c-.1-.1-.1-.1-.2-.1-2.2-.7-4.6-1-7-1C11.2 0 0 11.2 0 25s11.2 25 25 25c11.4 0 21-7.7 24-18.1v-.1-.2c.6-2.1.9-4.4.9-6.7.1-11.2-7.4-20.7-17.7-23.8zM15.4 27.4c-6.1-3.5-7.1-8.5-6.1-11.8.6-1.9.5-3.2-.2-4.1-.5-.5-.6-1.3-.3-1.9.9-2 5.6-2.8 8.3-2.8.9 0 1.7.1 2.4.2 2.2.4 9.4 1.8 10.3 5.3.4 1.5-.4 3-2.4 4.5-1.1.8-1.6 1.8-2.2 2.7-.8 1.3-1.7 2.7-3.7 2.7-.5 0-1.1-.1-1.7-.3-.5-.1-1 .1-1.3.5-.2.3-.1.6.1 1 .1.2.2.3.3.3.1 0 .3-.1.4-.1.2-.1.4-.2.7-.2.3 0 .7.2.9.4.2.3.3.7.2 1.1-.1.3-.1.8 0 1.1.5 0 1.3 0 1.8.7.4.4.5 1 .4 1.7.2.1.4.2.6.4.4.4.5.9.3 1.3s-.6.7-1.1.7c-.4 0-.9-.2-1.3-.6-1-.2-2.8-.8-6.4-2.8zM39.7 35c-.5.7-.9 1.4-1.2 2-1 1.7-1.9 3.3-4.4 5.7-2.4 2.4-2.8 2.6-4.7 3-.6.1-1.4.3-2.6.7-.8.4-1.2.6-1.4.6-.1.1-.3.1-.5.1-.5 0-.9-.3-1-.7-.1-.4.1-.9.5-1.2.7-.5 2.5-2.1 2.7-5.5 0-.3.1-1 .1-1.5-.2.1-.5.1-.8.1-.8 0-1.6-.4-2.4-1.1-1.7-1.5-2-1.8-1.8-2.5.2-.7.8-.8 1-.9.2-.1.4-.1.4-.7V33c0-.1.8-3.2 3.6-6.1.8-.8 1.7-1.2 2.7-1.2 2.2 0 4.1 2 5.7 3.6l.9.9c.6.6 1.3.8 2 1 .8.3 1.6.5 1.9 1.4.3.9-.2 1.8-.7 2.4zm4.8-3.2c-2.7-2.3-1.2-5.6-.1-8.1.1-.3.3-.6.4-.9.4-.9-.1-1.7-.8-3-.6-1-1.2-2.1-1.3-3.4-.1-1-2.8-2.4-4.7-3.2-1.7-.8-3.2-1.6-4.2-2.5-2.1-2-3-5.7-3.2-7.8.7.2 1.4.4 2.1.7 8.8 3.2 15 11.6 15 21.5 0 2.1-.3 4.1-.8 6-.2.7-.4 1.3-.6 2-.4-.3-1.1-.7-1.8-1.3z"
     id="path2"
     style="fill:#aa0000" />
</svg>
