<?xml version="1.0" encoding="UTF-8" standalone="no"?>
<svg
   version="1.2"
   viewBox="0 0 50 50"
   id="svg272"
   sodipodi:docname="icon4.svg"
   inkscape:version="1.2.1 (9c6d41e, 2022-07-14)"
   xmlns:inkscape="http://www.inkscape.org/namespaces/inkscape"
   xmlns:sodipodi="http://sodipodi.sourceforge.net/DTD/sodipodi-0.dtd"
   xmlns="http://www.w3.org/2000/svg"
   xmlns:svg="http://www.w3.org/2000/svg">
  <defs
     id="defs276" />
  <sodipodi:namedview
     id="namedview274"
     pagecolor="#ffffff"
     bordercolor="#000000"
     borderopacity="0.25"
     inkscape:showpageshadow="2"
     inkscape:pageopacity="0.0"
     inkscape:pagecheckerboard="0"
     inkscape:deskcolor="#d1d1d1"
     showgrid="false"
     inkscape:zoom="4.72"
     inkscape:cx="25.105932"
     inkscape:cy="25"
     inkscape:window-width="1309"
     inkscape:window-height="456"
     inkscape:window-x="0"
     inkscape:window-y="25"
     inkscape:window-maximized="0"
     inkscape:current-layer="svg272" />
  <g
     fill="#C3DAFE"
     id="g270"
     style="fill:#aa0000">
    <path
       d="M49 0H1C.5 0 0 .5 0 1v5.2h50V1c0-.5-.5-1-1-1zM0 22.9h50V8.3H0v14.6zm17.7-10.4h14.6c.6 0 1 .5 1 1s-.5 1-1 1H17.7c-.6 0-1-.5-1-1s.4-1 1-1zm-4.2 4.2h22.9c.6 0 1 .5 1 1s-.5 1-1 1H13.5c-.6 0-1-.5-1-1s.5-1 1-1zM0 49c0 .6.5 1 1 1h48c.6 0 1-.5 1-1V25H0v24zm28.1-19.8h14.6c.6 0 1 .5 1 1 0 .6-.5 1-1 1H28.1c-.6 0-1-.5-1-1 0-.6.5-1 1-1zm0 6.2h14.6c.6 0 1 .5 1 1 0 .6-.5 1-1 1H28.1c-.6 0-1-.5-1-1s.5-1 1-1zm0 6.3h14.6c.6 0 1 .5 1 1 0 .6-.5 1-1 1H28.1c-.6 0-1-.5-1-1 0-.6.5-1 1-1zM6.3 28.1c0-.6.5-1 1-1H24c.6 0 1 .5 1 1v16.7c0 .6-.5 1-1 1H7.3c-.6 0-1-.5-1-1V28.1z"
       id="path266"
       style="fill:#aa0000" />
    <path
       d="M8.3 29.2h14.6v14.6H8.3z"
       id="path268"
       style="fill:#aa0000" />
  </g>
</svg>
