<?xml version="1.0" encoding="UTF-8" standalone="no"?>
<svg
   version="1.2"
   viewBox="0 0 50 50"
   id="svg237"
   sodipodi:docname="icon2.svg"
   inkscape:version="1.2.1 (9c6d41e, 2022-07-14)"
   xmlns:inkscape="http://www.inkscape.org/namespaces/inkscape"
   xmlns:sodipodi="http://sodipodi.sourceforge.net/DTD/sodipodi-0.dtd"
   xmlns="http://www.w3.org/2000/svg"
   xmlns:svg="http://www.w3.org/2000/svg">
  <defs
     id="defs241" />
  <sodipodi:namedview
     id="namedview239"
     pagecolor="#ffffff"
     bordercolor="#000000"
     borderopacity="0.25"
     inkscape:showpageshadow="2"
     inkscape:pageopacity="0.0"
     inkscape:pagecheckerboard="0"
     inkscape:deskcolor="#d1d1d1"
     showgrid="false"
     inkscape:zoom="4.72"
     inkscape:cx="25.105932"
     inkscape:cy="25"
     inkscape:window-width="1309"
     inkscape:window-height="456"
     inkscape:window-x="0"
     inkscape:window-y="25"
     inkscape:window-maximized="0"
     inkscape:current-layer="g235" />
  <g
     fill="#C3DAFE"
     id="g235">
    <path
       d="M25.7 30.4l-1-4c.6-.5 1.2-1.1 1.7-1.7l4.1 1c.5.1 1-.1 1.2-.6l1.6-3.9c.2-.5 0-1-.4-1.3l-3.6-2.1c0-.4.1-.8.1-1.3 0-.4 0-.7-.1-1.1l3.6-2.2c.4-.3.6-.8.4-1.3L31.7 8c-.2-.5-.7-.7-1.2-.6l-4 1.1c-.5-.6-1.1-1.2-1.7-1.7l1.1-4c.1-.5-.1-1-.6-1.2L21.4 0c-.5-.2-1 0-1.3.4L18 4c-.8-.1-1.6-.1-2.4 0L13.5.4c-.3-.5-.8-.6-1.3-.4L8.3 1.7c-.5.2-.8.7-.7 1.2l1.1 4C8.1 7.4 7.5 8 7 8.6L3 7.5c-.5-.1-1 .1-1.2.6L.1 12c-.2.5 0 1 .4 1.3l3.6 2.1c0 .4-.1.9-.1 1.3s0 .7.1 1.1L.5 19.9c-.4.3-.6.8-.4 1.3l1.6 3.9c.2.5.7.7 1.2.6l4-1.1c.5.6 1.1 1.2 1.7 1.7l-1 4.1c-.1.5.1 1 .6 1.2l3.9 1.6c.5.2 1 0 1.3-.4l2.2-3.6c.8.1 1.5.1 2.3 0l2.1 3.6c.2.3.5.5.9.5.1 0 .3 0 .4-.1l3.9-1.6c.3-.1.6-.7.5-1.2zm-6.1-10.8c-1.6 1.6-4.3 1.6-5.9 0-.8-.8-1.2-1.8-1.2-2.9 0-1.1.4-2.2 1.2-2.9.8-.8 1.8-1.2 2.9-1.2 1.1 0 2.2.4 2.9 1.2.8.8 1.2 1.8 1.2 2.9.1 1.1-.3 2.1-1.1 2.9zM50 35.9c0-.5-.4-1-.9-1l-2.8-.4c-.1-.2-.2-.5-.3-.7l-.3-.6 1.7-2.3c.3-.4.3-1-.1-1.4l-2.1-2.1c-.4-.4-1-.4-1.4-.1L41.6 29c-.4-.2-.8-.4-1.3-.5l-.4-2.8c-.1-.5-.5-.9-1-.9h-3c-.5 0-1 .4-1 .9l-.4 2.8c-.2.1-.5.2-.7.3l-.6.3-2.2-1.5c-.4-.3-1-.3-1.4.1l-2.1 2.1c-.4.4-.4 1-.1 1.4l1.7 2.2c-.2.4-.4.9-.5 1.3l-2.8.4c-.5.1-.9.5-.9 1v3c0 .5.4 1 .9 1l2.8.3c.1.2.2.5.3.7l.3.6-1.6 2.3c-.3.4-.3 1 .1 1.4l2.1 2.1c.4.4 1 .4 1.4.1l2.2-1.7c.4.2.8.4 1.3.5l.4 2.8c.1.5.5.9 1 .9h3c.5 0 1-.4 1-.9l.4-2.8c.2-.1.4-.2.7-.3l.6-.3 2.3 1.7c.4.3 1 .3 1.4-.1l2.1-2.1c.4-.4.4-1 .1-1.4L46 41.7c.2-.4.4-.8.5-1.3l2.8-.4c.5-.1.9-.5.9-1l-.2-3.1zm-10.6 2.4c-.4 1-1.6 1.6-2.7 1.2-1.1-.4-1.6-1.6-1.2-2.7.3-.8 1.1-1.3 1.9-1.3.3 0 .5.1.8.2.5.2.9.6 1.1 1.1.3.4.3 1 .1 1.5z"
       id="path233"
       style="fill:#aa0000" />
  </g>
</svg>
